<?xml version="1.0" encoding="utf-8"?>
<!-- Generator: Adobe Illustrator 19.1.0, SVG Export Plug-In . SVG Version: 6.00 Build 0)  -->
<svg version="1.1" id="Calque_1" xmlns="http://www.w3.org/2000/svg" xmlns:xlink="http://www.w3.org/1999/xlink" x="0px" y="0px"
	 viewBox="-197 353.9 283.5 283.5" style="enable-background:new -197 353.9 283.5 283.5;" xml:space="preserve">
<style type="text/css">
	.st0{fill:none;stroke:#FFFFFF;stroke-width:2;stroke-linecap:round;stroke-linejoin:round;stroke-miterlimit:10;}
</style>
<path class="st0" d="M69,418.6c-9.1,4.1-19,6.8-29.3,8c10.5-6.3,18.6-16.3,22.4-28.2c-9.9,5.8-20.8,10.1-32.4,12.4
	c-9.3-9.9-22.6-16.1-37.2-16.1c-28.2,0-51,22.8-51,51c0,4,0.5,7.9,1.3,11.6c-42.4-2.1-79.9-22.4-105.1-53.3
	c-4.4,7.5-6.9,16.3-6.9,25.6c0,17.7,9,33.3,22.7,42.4c-8.4-0.3-16.2-2.6-23.1-6.4c0,0.2,0,0.4,0,0.6c0,24.7,17.6,45.3,40.9,50
	c-4.3,1.2-8.8,1.8-13.4,1.8c-3.3,0-6.5-0.3-9.6-0.9c6.5,20.3,25.3,35,47.6,35.4c-17.5,13.7-39.4,21.8-63.3,21.8
	c-4.1,0-8.2-0.2-12.2-0.7c22.6,14.5,49.4,22.9,78.2,22.9c93.8,0,145.1-77.7,145.1-145.1c0-2.2,0-4.4-0.1-6.6
	C53.5,437.8,62.2,428.8,69,418.6L69,418.6z"/>
</svg>
